<svg width="104" height="54" viewBox="0 0 104 54" fill="none" xmlns="http://www.w3.org/2000/svg">
<path d="M102 34V52H2V34M2 19V2H102V19" stroke="#1E1E1E" stroke-width="4" stroke-linecap="round" stroke-linejoin="round"/>
<path d="M2 19C3.58508 19.9845 4.84255 21.1537 5.70048 22.4406C6.55842 23.7275 7 25.1069 7 26.5C7 27.8931 6.55842 29.2725 5.70048 30.5594C4.84255 31.8463 3.58508 33.0155 2 34" stroke="#1E1E1E" stroke-width="4" stroke-linecap="round" stroke-linejoin="round"/>
<path d="M102 19C100.415 19.9845 99.1575 21.1537 98.2995 22.4406C97.4416 23.7275 97 25.1069 97 26.5C97 27.8931 97.4416 29.2725 98.2995 30.5594C99.1575 31.8463 100.415 33.0155 102 34" stroke="#1E1E1E" stroke-width="4" stroke-linecap="round" stroke-linejoin="round"/>
<path d="M14.0763 31V21.984H18.5143C19.233 21.984 19.8256 22.1287 20.2923 22.418C20.759 22.698 21.1043 23.0807 21.3283 23.566C21.5616 24.0513 21.6783 24.5973 21.6783 25.204C21.6783 25.82 21.5476 26.366 21.2863 26.842C21.025 27.318 20.6516 27.6913 20.1663 27.962C19.6903 28.2233 19.121 28.354 18.4583 28.354H16.3303V31H14.0763ZM16.3303 26.618H17.9543C18.4303 26.618 18.785 26.4873 19.0183 26.226C19.261 25.9647 19.3823 25.6193 19.3823 25.19C19.3823 24.7233 19.2703 24.364 19.0463 24.112C18.8316 23.8507 18.491 23.72 18.0243 23.72H16.3303V26.618ZM23.6651 31.14C23.2451 31.14 22.8531 31.0653 22.4891 30.916C22.1344 30.7667 21.8498 30.538 21.6351 30.23C21.4204 29.9127 21.3131 29.5207 21.3131 29.054C21.3131 28.3727 21.5418 27.8407 21.9991 27.458C22.4658 27.066 23.1611 26.87 24.0851 26.87H25.9331V26.716C25.9331 26.38 25.8211 26.142 25.5971 26.002C25.3731 25.8527 24.9531 25.778 24.3371 25.778C23.5811 25.778 22.8391 25.8947 22.1111 26.128V24.672C22.4378 24.5413 22.8344 24.434 23.3011 24.35C23.7771 24.266 24.2764 24.224 24.7991 24.224C25.8258 24.224 26.6284 24.434 27.2071 24.854C27.7951 25.274 28.0891 25.9413 28.0891 26.856V31H26.1151L26.0031 30.44C25.7604 30.664 25.4478 30.8367 25.0651 30.958C24.6918 31.0793 24.2251 31.14 23.6651 31.14ZM24.3791 29.754C24.7338 29.754 25.0418 29.6933 25.3031 29.572C25.5644 29.4507 25.7744 29.2967 25.9331 29.11V28.172H24.3371C23.6744 28.172 23.3431 28.438 23.3431 28.97C23.3431 29.2127 23.4271 29.404 23.5951 29.544C23.7631 29.684 24.0244 29.754 24.3791 29.754ZM28.7408 31V24.364H30.8408L30.9108 24.938C31.1814 24.7513 31.5221 24.588 31.9328 24.448C32.3434 24.2987 32.7821 24.224 33.2488 24.224C34.1074 24.224 34.7328 24.4293 35.1248 24.84C35.5168 25.2507 35.7128 25.8853 35.7128 26.744V31H33.4588V26.926C33.4588 26.5527 33.3794 26.2867 33.2208 26.128C33.0621 25.9693 32.7774 25.89 32.3668 25.89C32.1241 25.89 31.8768 25.946 31.6248 26.058C31.3728 26.17 31.1628 26.31 30.9948 26.478V31H28.7408ZM38.2339 31.14C37.8139 31.14 37.4219 31.0653 37.0579 30.916C36.7032 30.7667 36.4185 30.538 36.2039 30.23C35.9892 29.9127 35.8819 29.5207 35.8819 29.054C35.8819 28.3727 36.1105 27.8407 36.5679 27.458C37.0345 27.066 37.7299 26.87 38.6539 26.87H40.5019V26.716C40.5019 26.38 40.3899 26.142 40.1659 26.002C39.9419 25.8527 39.5219 25.778 38.9059 25.778C38.1499 25.778 37.4079 25.8947 36.6799 26.128V24.672C37.0065 24.5413 37.4032 24.434 37.8699 24.35C38.3459 24.266 38.8452 24.224 39.3679 24.224C40.3945 24.224 41.1972 24.434 41.7759 24.854C42.3639 25.274 42.6579 25.9413 42.6579 26.856V31H40.6839L40.5719 30.44C40.3292 30.664 40.0165 30.8367 39.6339 30.958C39.2605 31.0793 38.7939 31.14 38.2339 31.14ZM38.9479 29.754C39.3025 29.754 39.6105 29.6933 39.8719 29.572C40.1332 29.4507 40.3432 29.2967 40.5019 29.11V28.172H38.9059C38.2432 28.172 37.9119 28.438 37.9119 28.97C37.9119 29.2127 37.9959 29.404 38.1639 29.544C38.3319 29.684 38.5932 29.754 38.9479 29.754ZM43.3095 31V21.984H49.9595V23.72H45.5635V25.61H49.4415V27.374H45.5635V29.264H49.9595V31H43.3095ZM52.2483 31L49.6303 24.364H51.9823L53.4383 28.676L54.9083 24.364H57.2603L54.6423 31H52.2483ZM60.5046 31.14C59.3472 31.14 58.4186 30.8553 57.7186 30.286C57.0186 29.7073 56.6686 28.8393 56.6686 27.682C56.6686 26.6273 56.9579 25.7873 57.5366 25.162C58.1152 24.5367 58.9832 24.224 60.1406 24.224C61.1952 24.224 62.0119 24.4947 62.5906 25.036C63.1692 25.5773 63.4586 26.3053 63.4586 27.22V28.41H58.7546C58.8572 28.8487 59.0952 29.1567 59.4686 29.334C59.8512 29.502 60.3692 29.586 61.0226 29.586C61.3866 29.586 61.7552 29.5533 62.1286 29.488C62.5112 29.4227 62.8286 29.3387 63.0806 29.236V30.706C62.7632 30.8553 62.3852 30.9627 61.9466 31.028C61.5079 31.1027 61.0272 31.14 60.5046 31.14ZM58.7546 27.108H61.4986V26.814C61.4986 26.4873 61.4006 26.2307 61.2046 26.044C61.0086 25.848 60.6772 25.75 60.2106 25.75C59.6692 25.75 59.2912 25.862 59.0766 26.086C58.8619 26.3007 58.7546 26.6413 58.7546 27.108ZM63.9048 31V24.364H66.0048L66.0748 24.938C66.3455 24.7513 66.6862 24.588 67.0968 24.448C67.5075 24.2987 67.9462 24.224 68.4128 24.224C69.2715 24.224 69.8968 24.4293 70.2888 24.84C70.6808 25.2507 70.8768 25.8853 70.8768 26.744V31H68.6228V26.926C68.6228 26.5527 68.5435 26.2867 68.3848 26.128C68.2262 25.9693 67.9415 25.89 67.5308 25.89C67.2882 25.89 67.0408 25.946 66.7888 26.058C66.5368 26.17 66.3268 26.31 66.1588 26.478V31H63.9048ZM74.261 31.14C73.4397 31.14 72.833 30.93 72.441 30.51C72.0583 30.09 71.867 29.5113 71.867 28.774V26.072H70.971V24.364H71.867V22.978L74.121 22.376V24.364H75.731L75.633 26.072H74.121V28.62C74.121 28.9373 74.2003 29.1613 74.359 29.292C74.5177 29.4133 74.7557 29.474 75.073 29.474C75.3437 29.474 75.619 29.4273 75.899 29.334V30.86C75.4603 31.0467 74.9143 31.14 74.261 31.14ZM79.5253 31.14C78.2467 31.14 77.304 30.846 76.6973 30.258C76.0907 29.6607 75.7873 28.802 75.7873 27.682C75.7873 26.5713 76.0907 25.7173 76.6973 25.12C77.3133 24.5227 78.256 24.224 79.5253 24.224C80.804 24.224 81.7467 24.5227 82.3533 25.12C82.9693 25.7173 83.2773 26.5713 83.2773 27.682C83.2773 28.802 82.974 29.6607 82.3673 30.258C81.7607 30.846 80.8133 31.14 79.5253 31.14ZM79.5253 29.376C80.048 29.376 80.4213 29.2453 80.6453 28.984C80.8693 28.7227 80.9813 28.2887 80.9813 27.682C80.9813 27.0753 80.8693 26.6413 80.6453 26.38C80.4213 26.1187 80.048 25.988 79.5253 25.988C79.012 25.988 78.6433 26.1187 78.4193 26.38C78.1953 26.6413 78.0833 27.0753 78.0833 27.682C78.0833 28.2887 78.1953 28.7227 78.4193 28.984C78.6433 29.2453 79.012 29.376 79.5253 29.376ZM86.1165 31.14C85.5845 31.14 85.0805 31.1027 84.6045 31.028C84.1285 30.9533 83.7505 30.86 83.4705 30.748V29.026C83.7971 29.166 84.1751 29.2733 84.6045 29.348C85.0338 29.4227 85.4165 29.46 85.7525 29.46C86.1538 29.46 86.4431 29.4413 86.6205 29.404C86.8071 29.3667 86.9005 29.264 86.9005 29.096C86.9005 28.9093 86.7511 28.7693 86.4525 28.676C86.1538 28.5827 85.7431 28.4473 85.2205 28.27C84.6138 28.0553 84.1518 27.808 83.8345 27.528C83.5265 27.2387 83.3725 26.814 83.3725 26.254C83.3725 25.6007 83.6151 25.1013 84.1005 24.756C84.5951 24.4013 85.3791 24.224 86.4525 24.224C86.8725 24.224 87.2878 24.2567 87.6985 24.322C88.1091 24.3873 88.4451 24.462 88.7065 24.546V26.24C88.4451 26.1187 88.1465 26.03 87.8105 25.974C87.4745 25.918 87.1711 25.89 86.9005 25.89C86.5551 25.89 86.2611 25.9133 86.0185 25.96C85.7851 25.9973 85.6685 26.0953 85.6685 26.254C85.6685 26.4313 85.7991 26.5573 86.0605 26.632C86.3218 26.6973 86.6998 26.8093 87.1945 26.968C87.7171 27.1267 88.1231 27.2993 88.4125 27.486C88.7018 27.6633 88.9071 27.878 89.0285 28.13C89.1498 28.382 89.2105 28.6993 89.2105 29.082C89.2105 29.7447 88.9491 30.2533 88.4265 30.608C87.9038 30.9627 87.1338 31.14 86.1165 31.14Z" fill="black"/>
</svg>
